<svg xmlns="http://www.w3.org/2000/svg" viewBox="0 0 16 16" fill="#000000" aria-hidden="true" id="Command-Line--Streamline-Heroicons" height="16" width="16">
  <desc>
    Command Line Streamline Icon: https://streamlinehq.com
  </desc>
  <path fill-rule="evenodd" d="M1.5 4a2 2 0 0 1 2 -2h9a2 2 0 0 1 2 2v8a2 2 0 0 1 -2 2H3.5a2 2 0 0 1 -2 -2V4Zm2.6466666666666665 0.6466666666666666a0.5 0.5 0 0 1 0.7066666666666667 0l1.5 1.5a0.5 0.5 0 0 1 0 0.7066666666666667l-1.5 1.5a0.5 0.5 0 0 1 -0.7066666666666667 -0.7066666666666667l1.1466666666666665 -1.1466666666666665 -1.1466666666666665 -1.1466666666666665a0.5 0.5 0 0 1 0 -0.7066666666666667Zm2.8533333333333335 2.8533333333333335a0.5 0.5 0 0 0 0 1h2a0.5 0.5 0 0 0 0 -1h-2Z" clip-rule="evenodd" stroke-width="0.6667"></path>
</svg>